<svg role="img" viewBox="0 0 24 24" xmlns="http://www.w3.org/2000/svg">
  <title>GitHub</title>
  <path d="M12 .296c-6.63 0-12 5.373-12 12 0 5.302 3.438 9.8 8.207 11.387.6.11.793-.258.793-.577 0-.285-.01-1.04-.015-2.04-3.338.724-4.042-1.61-4.042-1.61-.546-1.387-1.332-1.756-1.332-1.756-1.087-.744.083-.729.083-.729 1.205.084 1.838 1.238 1.838 1.238 1.07 1.835 2.807 1.305 3.492.998.108-.776.42-1.305.764-1.605-2.665-.305-5.466-1.335-5.466-5.93 0-1.31.47-2.38 1.235-3.22-.124-.305-.535-1.53.117-3.18 0 0 1.007-.322 3.3 1.23.957-.266 1.98-.398 3-.403 1.02.005 2.043.137 3 .403 2.285-1.552 3.29-1.23 3.29-1.23.654 1.65.243 2.875.12 3.18.77.84 1.23 1.91 1.23 3.22 0 4.61-2.805 5.623-5.475 5.92.43.372.823 1.104.823 2.222 0 1.606-.014 2.898-.014 3.293 0 .32.19.694.8.576C20.565 22.092 24 17.593 24 12.296c0-6.627-5.373-12-12-12"/>
</svg>
