<svg role="img" viewBox="0 0 24 24" xmlns="http://www.w3.org/2000/svg">
  <title>LinkedIn</title>
  <path d="M20.447 20.452H16.84v-5.569c0-1.328-.027-3.037-1.851-3.037-1.852 0-2.136 1.445-2.136 2.939v5.667H9.227V9h3.453v1.561h.05c.481-.905 1.659-1.852 3.414-1.852 3.649 0 4.322 2.404 4.322 5.528v6.215zM5.337 7.433a2.02 2.02 0 1 1 0-4.04 2.02 2.02 0 0 1 0 4.04zM7.237 20.452H3.437V9h3.8v11.452zM22.225 0H1.771C.792 0 0 .774 0 1.726v20.548C0 23.227.792 24 1.771 24h20.451C23.207 24 24 23.227 24 22.274V1.726C24 .774 23.207 0 22.225 0z"/>
</svg>
